<?xml version="1.0" standalone="no"?>
<!DOCTYPE svg PUBLIC "-//W3C//DTD SVG 20010904//EN"
 "http://www.w3.org/TR/2001/REC-SVG-20010904/DTD/svg10.dtd">
<svg version="1.0" xmlns="http://www.w3.org/2000/svg"
 width="814.000000pt" height="1280.000000pt" viewBox="0 0 814.000000 1280.000000"
 preserveAspectRatio="xMidYMid meet">
<metadata>
Created by potrace 1.15, written by Peter Selinger 2001-2017
</metadata>
<g transform="translate(0.000000,1280.000000) scale(0.100000,-0.100000)"
fill="#ffffff" stroke="none">
<path d="M1710 12794 c-14 -2 -56 -9 -95 -15 -143 -22 -348 -82 -487 -141 -43
-18 -51 -28 -102 -121 -31 -56 -114 -178 -186 -272 -237 -311 -299 -414 -346
-572 -24 -83 -26 -100 -26 -323 -1 -229 0 -241 37 -445 84 -472 56 -670 -121
-854 -63 -67 -74 -84 -92 -146 -55 -189 -63 -288 -62 -783 0 -556 -1 -574 -98
-952 -62 -239 -108 -463 -122 -592 -34 -316 23 -570 172 -773 24 -33 140 -229
258 -435 248 -436 402 -692 547 -914 57 -88 117 -184 133 -215 68 -136 177
-283 385 -526 249 -289 351 -427 426 -577 56 -112 72 -159 128 -378 84 -327
121 -545 158 -915 16 -161 18 -300 18 -1335 0 -1172 1 -1216 36 -1308 31 -82
107 -147 208 -179 74 -23 339 -23 541 1 240 28 373 31 481 12 126 -22 373 -10
435 22 80 41 78 35 65 264 -6 112 -27 408 -46 658 -37 488 -57 931 -48 1072 5
79 8 87 30 97 34 16 58 14 76 -7 41 -45 55 -135 67 -434 9 -223 22 -338 40
-368 13 -22 134 -26 164 -7 59 39 59 161 1 397 -79 322 -89 409 -60 530 28
119 24 417 -10 695 -73 598 -74 833 -6 965 72 139 58 307 -35 410 -77 85 -157
54 -229 -91 -30 -58 -40 -69 -92 -96 -32 -17 -82 -38 -112 -47 -276 -81 -553
159 -771 668 -28 65 -57 150 -65 188 -29 136 -87 253 -182 370 -72 89 -145
156 -338 312 -223 181 -289 240 -360 323 -87 102 -116 188 -123 367 -5 138 4
213 43 356 33 117 57 180 183 467 142 325 159 372 141 384 -58 36 -112 -30
-248 -300 -125 -247 -158 -306 -224 -391 -40 -51 -59 -66 -139 -104 -60 -29
-113 -48 -150 -52 -52 -6 -58 -5 -84 21 l-27 27 9 142 c17 286 11 319 -62 345
-57 20 -131 69 -156 104 -31 44 -28 112 8 174 26 46 77 99 301 317 123 120
150 166 123 216 -8 16 -15 17 -52 8 -191 -43 -423 165 -319 286 43 50 183 62
294 25 134 -45 233 9 213 117 -9 45 -58 100 -103 115 -43 14 -138 14 -175 0
-23 -8 -34 -4 -90 35 -36 24 -71 56 -79 70 -12 23 -11 27 5 39 46 34 220 28
461 -16 l110 -20 65 30 c112 53 192 37 226 -45 8 -19 14 -69 14 -117 0 -111
-26 -214 -88 -340 -2 -5 14 1 37 12 55 29 96 27 117 -4 9 -13 22 -71 29 -127
8 -57 19 -116 25 -133 l10 -30 238 -1 c257 -1 240 2 682 -84 113 -22 250 -47
305 -56 134 -20 381 -29 475 -16 l75 11 62 -35 c224 -125 390 -340 464 -599
20 -70 23 -102 23 -255 0 -160 -2 -183 -28 -277 -25 -94 -27 -108 -17 -172 13
-85 26 -120 46 -127 23 -9 42 12 66 74 47 128 60 216 68 467 6 198 10 248 25
283 61 144 223 36 363 -243 48 -95 80 -194 93 -288 23 -160 109 -259 148 -171
18 37 14 122 -8 184 -10 30 -17 56 -16 58 2 1 36 12 77 23 336 92 683 289 969
550 114 104 180 182 263 309 90 139 242 287 467 453 258 191 396 297 459 354
l53 48 -36 39 c-53 59 -70 110 -64 203 6 92 26 153 113 347 105 235 116 309
56 365 -15 14 -36 48 -46 74 -25 66 -71 127 -95 127 -57 0 -118 -176 -150
-435 -18 -149 -48 -299 -76 -382 -76 -228 -194 -403 -300 -444 -73 -27 -163
-4 -238 61 -27 24 -43 30 -79 30 -180 0 -373 114 -460 272 -65 117 -82 192
-82 368 1 132 5 171 27 265 14 61 31 144 37 185 48 318 291 704 685 1089 53
51 96 95 96 97 0 2 -16 4 -36 4 -51 0 -171 29 -184 45 -17 20 15 33 111 46
125 17 326 -11 376 -53 8 -6 33 -8 63 -4 125 17 140 61 44 127 -129 89 -390
169 -550 169 -48 0 -83 -8 -141 -31 -100 -40 -186 -48 -250 -24 -59 23 -107
66 -203 185 -80 99 -160 178 -199 200 -22 11 -23 11 -16 -22 3 -18 31 -132 60
-253 74 -299 95 -428 95 -583 -1 -70 -5 -147 -10 -172 -5 -25 -43 -286 -85
-580 -115 -809 -198 -1319 -231 -1408 -21 -56 -105 -142 -174 -178 -72 -36
-189 -45 -276 -19 -239 69 -473 318 -539 574 -10 38 -16 103 -16 163 0 74 -6
121 -24 191 -53 197 -95 475 -95 632 0 264 82 536 214 709 42 55 50 61 108 76
76 20 95 29 131 68 58 61 46 125 -70 377 -68 147 -83 198 -83 282 1 68 17 120
54 167 l26 34 -63 64 c-100 103 -169 121 -227 58 -33 -36 -55 -80 -131 -260
-34 -80 -72 -171 -85 -202 -61 -144 -90 -373 -104 -824 -12 -425 -21 -531 -66
-794 -56 -330 -92 -486 -140 -622 -63 -177 -157 -304 -262 -354 -95 -45 -231
-36 -349 24 -22 11 -68 30 -103 42 -236 80 -364 221 -431 475 -23 87 -24 101
-24 488 0 453 10 412 -91 382 -114 -34 -249 -157 -459 -420 -166 -207 -333
-384 -415 -440 -124 -85 -281 -126 -475 -126 -196 1 -402 47 -584 132 -46 21
-89 39 -95 39 -24 0 -140 62 -196 105 -151 116 -312 349 -354 511 -22 83 -20
122 7 174 29 57 75 81 163 84 65 2 67 3 85 38 10 19 36 84 59 144 89 235 154
325 282 389 39 19 78 35 87 35 9 0 48 23 86 51 71 52 122 79 149 79 26 0 38
-38 47 -147 9 -106 19 -140 84 -297 86 -210 196 -310 370 -337 145 -23 355 43
548 172 167 113 381 323 349 343 -35 22 -315 -109 -462 -215 -47 -34 -104 -71
-128 -81 -213 -95 -507 86 -554 341 -20 108 32 216 138 286 79 53 125 152 91
196 -30 39 -79 53 -250 69 -146 13 -147 14 -147 103 0 96 -34 232 -113 447
-83 225 -100 295 -101 400 -1 100 19 165 73 237 35 47 36 49 27 105 -26 161
65 274 251 313 126 27 368 14 561 -30 40 -9 75 -15 78 -12 10 10 -66 104 -110
136 -79 57 -172 82 -316 86 -69 2 -136 2 -150 -1z"/>
<path d="M2453 12510 c-47 -19 -30 -65 89 -252 105 -166 145 -268 128 -328 -6
-22 -2 -40 16 -76 30 -59 30 -88 1 -139 -29 -51 -92 -98 -227 -169 -59 -32
-121 -71 -136 -87 -27 -28 -28 -31 -14 -56 14 -24 128 -92 157 -93 7 0 32 13
56 30 88 59 134 74 237 74 117 0 173 -20 275 -97 115 -88 263 -276 366 -464
32 -59 36 -63 70 -63 56 0 150 20 192 41 103 53 64 145 -157 364 -190 189
-229 235 -270 322 -34 69 -38 85 -34 138 4 71 38 148 129 296 96 156 87 208
-35 209 -44 0 -55 -5 -105 -46 -185 -152 -313 -133 -443 65 -26 41 -76 129
-109 197 -59 120 -62 124 -97 130 -21 3 -44 7 -52 9 -8 2 -25 0 -37 -5z"/>
<path d="M4207 12113 c-16 -3 -31 -11 -34 -19 -9 -23 31 -58 156 -136 136 -84
174 -112 259 -190 98 -91 148 -91 118 -1 -27 82 -106 204 -175 274 l-66 66
-70 6 c-73 7 -140 7 -188 0z"/>
<path d="M3863 11719 c-88 -43 -192 -171 -193 -236 0 -17 7 -23 35 -29 77 -14
147 22 160 83 4 15 23 60 43 99 51 100 38 124 -45 83z"/>
<path d="M3345 11699 c-4 -6 -4 -25 -1 -44 7 -37 42 -53 76 -35 26 14 25 22
-6 59 -26 31 -57 40 -69 20z"/>
<path d="M5347 11465 c-66 -27 -87 -41 -87 -61 0 -21 28 -31 190 -74 223 -59
302 -102 304 -170 1 -36 6 -37 54 -6 70 44 99 96 81 144 -52 139 -370 236
-542 167z"/>
<path d="M2747 11243 c-57 -64 -9 -186 105 -269 59 -44 75 -40 97 22 14 39 13
42 -26 125 -43 92 -88 139 -132 139 -15 0 -35 -8 -44 -17z"/>
<path d="M5361 11197 c-6 -6 -11 -28 -11 -49 0 -33 4 -40 27 -49 38 -14 87 -8
91 13 4 20 -51 84 -77 91 -11 2 -24 0 -30 -6z"/>
<path d="M7577 10502 c-25 -28 -21 -72 14 -141 28 -56 91 -131 110 -131 29 0
39 161 12 217 -29 62 -103 92 -136 55z"/>
<path d="M7760 10015 c-9 -27 -9 -56 0 -125 12 -83 14 -89 41 -101 36 -14 77
-15 91 -1 30 30 -12 175 -69 235 -35 36 -49 34 -63 -8z"/>
<path d="M7994 9092 c0 -135 -5 -265 -13 -322 -31 -230 -100 -474 -181 -648
-42 -90 -44 -116 -7 -126 27 -7 48 17 112 124 139 236 235 550 235 771 0 147
-39 281 -112 381 l-34 48 0 -228z"/>
<path d="M7743 7792 c-115 -142 -150 -287 -183 -742 -22 -309 -32 -399 -61
-503 -11 -40 -28 -115 -38 -167 -86 -428 -201 -802 -400 -1297 -11 -29 -18
-53 -16 -53 16 0 108 54 152 89 53 42 124 133 163 211 63 124 113 320 165 645
14 88 34 207 45 265 10 58 26 171 35 253 9 81 38 256 66 390 66 319 95 481
109 596 12 103 12 351 1 351 -4 0 -21 -17 -38 -38z"/>
<path d="M4625 6077 c-125 -59 -199 -170 -255 -385 -29 -111 -37 -165 -70
-477 -16 -154 -32 -289 -35 -300 -14 -44 68 63 100 130 44 92 66 170 115 410
36 178 49 233 67 285 3 10 9 3 19 -20 53 -125 151 -116 191 19 27 94 -4 265
-61 335 l-21 26 -50 -23z"/>
<path d="M6880 4831 c-111 -34 -199 -147 -200 -256 0 -58 12 -75 51 -75 44 0
151 94 210 184 72 110 44 179 -61 147z"/>
<path d="M5165 4521 c-49 -22 -122 -101 -160 -174 -23 -43 -39 -59 -79 -80
-134 -70 -223 -195 -214 -301 6 -68 39 -115 105 -147 47 -24 54 -24 338 -24
327 0 518 19 825 81 153 31 305 156 248 201 -24 19 -83 33 -248 58 -265 39
-333 63 -392 136 -106 131 -143 171 -189 204 -89 66 -160 80 -234 46z"/>
<path d="M6565 4148 c-70 -83 -180 -294 -200 -388 -4 -19 -45 -110 -91 -203
-135 -269 -199 -443 -234 -639 -35 -197 -23 -405 35 -587 21 -65 25 -96 25
-213 0 -353 63 -772 195 -1298 93 -372 184 -692 201 -711 23 -26 60 -24 79 4
25 39 -15 249 -174 917 -131 551 -164 741 -181 1045 -6 99 -15 237 -22 307
-13 144 -6 344 16 464 40 223 96 396 258 803 135 339 164 436 159 524 -2 29
-28 19 -66 -25z"/>
<path d="M4623 3314 c-97 -47 -115 -139 -64 -306 57 -186 91 -400 111 -698 40
-613 50 -705 96 -908 28 -122 36 -132 103 -132 77 0 101 139 66 377 l-16 104
26 65 c14 35 31 90 37 122 14 76 5 284 -20 447 -11 72 -23 173 -27 225 -15
219 47 364 195 456 l59 36 -19 38 c-75 148 -396 250 -547 174z"/>
</g>
</svg>
