<?xml version="1.0" encoding="UTF-8"?>
<svg xmlns="http://www.w3.org/2000/svg" xmlns:xlink="http://www.w3.org/1999/xlink" viewBox="0 0 40 40" width="40px" height="40px">
<g id="surface26609879">
<path style=" stroke:none;fill-rule:nonzero;fill:rgb(9.803922%,46.666667%,94.901961%);fill-opacity:1;" d="M 20 1.332031 C 9.691406 1.332031 1.332031 9.691406 1.332031 20 C 1.332031 30.308594 9.691406 38.667969 20 38.667969 C 30.308594 38.667969 38.667969 30.308594 38.667969 20 C 38.667969 9.691406 30.308594 1.332031 20 1.332031 Z M 20 1.332031 "/>
<path style=" stroke:none;fill-rule:nonzero;fill:rgb(100%,100%,100%);fill-opacity:1;" d="M 38.5625 21.972656 C 38.5625 21.945312 38.570312 21.921875 38.570312 21.894531 C 38.566406 21.917969 38.5625 21.945312 38.5625 21.972656 Z M 1.429688 21.886719 C 1.433594 21.921875 1.4375 21.957031 1.441406 21.992188 C 1.4375 21.957031 1.433594 21.921875 1.429688 21.886719 Z M 22.660156 24.945312 L 27.492188 24.945312 L 28.25 20.039062 L 22.660156 20.039062 L 22.660156 17.355469 C 22.660156 15.320312 23.328125 13.511719 25.234375 13.511719 L 28.296875 13.511719 L 28.296875 9.230469 C 27.761719 9.15625 26.621094 8.996094 24.46875 8.996094 C 19.976562 8.996094 17.34375 11.371094 17.34375 16.777344 L 17.34375 20.042969 L 12.726562 20.042969 L 12.726562 24.949219 L 17.34375 24.949219 L 17.34375 38.175781 C 18.257812 38.3125 19.183594 38.40625 20.132812 38.40625 C 20.992188 38.40625 21.832031 38.328125 22.660156 38.214844 Z M 22.660156 24.945312 "/>
<path style=" stroke:none;fill-rule:nonzero;fill:rgb(9.803922%,46.666667%,94.901961%);fill-opacity:1;" d="M 20 2.667969 C 29.558594 2.667969 37.332031 10.441406 37.332031 20 C 37.332031 29.558594 29.558594 37.332031 20 37.332031 C 10.441406 37.332031 2.667969 29.558594 2.667969 20 C 2.667969 10.441406 10.441406 2.667969 20 2.667969 M 20 1.332031 C 9.691406 1.332031 1.332031 9.691406 1.332031 20 C 1.332031 30.308594 9.691406 38.667969 20 38.667969 C 30.308594 38.667969 38.667969 30.308594 38.667969 20 C 38.667969 9.691406 30.308594 1.332031 20 1.332031 Z M 20 1.332031 "/>
</g>
</svg>
